<mxGraphModel dx="1774" dy="790" grid="0" gridSize="10" guides="1" tooltips="1" connect="1" arrows="1" fold="1" page="0" pageScale="1" pageWidth="827" pageHeight="1169" math="0" shadow="0">
  <root>
    <mxCell id="0" />
    <mxCell id="1" parent="0" />
    <mxCell id="10" style="edgeStyle=none;html=1;endArrow=none;endFill=0;startArrow=none;" edge="1" parent="1" source="20" target="6">
      <mxGeometry relative="1" as="geometry" />
    </mxCell>
    <mxCell id="12" value="0,n" style="edgeLabel;html=1;align=center;verticalAlign=middle;resizable=0;points=[];" vertex="1" connectable="0" parent="10">
      <mxGeometry x="0.9341" y="2" relative="1" as="geometry">
        <mxPoint as="offset" />
      </mxGeometry>
    </mxCell>
    <mxCell id="2" value="Person" style="swimlane;fontStyle=0;childLayout=stackLayout;horizontal=1;startSize=30;horizontalStack=0;resizeParent=1;resizeParentMax=0;resizeLast=0;collapsible=1;marginBottom=0;strokeColor=#A50040;fontColor=#ffffff;labelBackgroundColor=none;fillColor=#d80073;" vertex="1" parent="1">
      <mxGeometry x="-286" y="340" width="140" height="150" as="geometry" />
    </mxCell>
    <mxCell id="24" value="Identifier" style="text;strokeColor=none;fillColor=none;align=left;verticalAlign=middle;spacingLeft=4;spacingRight=4;overflow=hidden;points=[[0,0.5],[1,0.5]];portConstraint=eastwest;rotatable=0;fontStyle=5" vertex="1" parent="2">
      <mxGeometry y="30" width="140" height="30" as="geometry" />
    </mxCell>
    <mxCell id="3" value="Name" style="text;strokeColor=none;fillColor=none;align=left;verticalAlign=middle;spacingLeft=4;spacingRight=4;overflow=hidden;points=[[0,0.5],[1,0.5]];portConstraint=eastwest;rotatable=0;" vertex="1" parent="2">
      <mxGeometry y="60" width="140" height="30" as="geometry" />
    </mxCell>
    <mxCell id="4" value="Lastname" style="text;strokeColor=none;fillColor=none;align=left;verticalAlign=middle;spacingLeft=4;spacingRight=4;overflow=hidden;points=[[0,0.5],[1,0.5]];portConstraint=eastwest;rotatable=0;" vertex="1" parent="2">
      <mxGeometry y="90" width="140" height="30" as="geometry" />
    </mxCell>
    <mxCell id="5" value="Mail" style="text;strokeColor=none;fillColor=none;align=left;verticalAlign=middle;spacingLeft=4;spacingRight=4;overflow=hidden;points=[[0,0.5],[1,0.5]];portConstraint=eastwest;rotatable=0;" vertex="1" parent="2">
      <mxGeometry y="120" width="140" height="30" as="geometry" />
    </mxCell>
    <mxCell id="6" value="Skill" style="swimlane;fontStyle=0;childLayout=stackLayout;horizontal=1;startSize=30;horizontalStack=0;resizeParent=1;resizeParentMax=0;resizeLast=0;collapsible=1;marginBottom=0;fillColor=#6d8764;fontColor=#ffffff;strokeColor=#3A5431;" vertex="1" parent="1">
      <mxGeometry x="400" y="355" width="140" height="120" as="geometry" />
    </mxCell>
    <mxCell id="25" value="Identifier" style="text;strokeColor=none;fillColor=none;align=left;verticalAlign=middle;spacingLeft=4;spacingRight=4;overflow=hidden;points=[[0,0.5],[1,0.5]];portConstraint=eastwest;rotatable=0;fontStyle=5" vertex="1" parent="6">
      <mxGeometry y="30" width="140" height="30" as="geometry" />
    </mxCell>
    <mxCell id="7" value="Name" style="text;strokeColor=none;fillColor=none;align=left;verticalAlign=middle;spacingLeft=4;spacingRight=4;overflow=hidden;points=[[0,0.5],[1,0.5]];portConstraint=eastwest;rotatable=0;" vertex="1" parent="6">
      <mxGeometry y="60" width="140" height="30" as="geometry" />
    </mxCell>
    <mxCell id="26" value="Icon" style="text;strokeColor=none;fillColor=none;align=left;verticalAlign=middle;spacingLeft=4;spacingRight=4;overflow=hidden;points=[[0,0.5],[1,0.5]];portConstraint=eastwest;rotatable=0;" vertex="1" parent="6">
      <mxGeometry y="90" width="140" height="30" as="geometry" />
    </mxCell>
    <mxCell id="20" value="Has" style="rounded=1;whiteSpace=wrap;html=1;strokeColor=#B09500;fillColor=#e3c800;fontColor=#000000;" vertex="1" parent="1">
      <mxGeometry x="70" y="385" width="120" height="60" as="geometry" />
    </mxCell>
    <mxCell id="21" value="" style="edgeStyle=none;html=1;endArrow=none;endFill=0;" edge="1" parent="1" source="2" target="20">
      <mxGeometry relative="1" as="geometry">
        <mxPoint x="-146" y="400" as="sourcePoint" />
        <mxPoint x="400" y="400" as="targetPoint" />
      </mxGeometry>
    </mxCell>
    <mxCell id="22" value="0,n" style="edgeLabel;html=1;align=center;verticalAlign=middle;resizable=0;points=[];" vertex="1" connectable="0" parent="21">
      <mxGeometry x="-0.9231" y="2" relative="1" as="geometry">
        <mxPoint as="offset" />
      </mxGeometry>
    </mxCell>
    <mxCell id="43" value="&lt;font style=&quot;font-size: 19px&quot;&gt;SELECT *&lt;br&gt;FROM &lt;font style=&quot;background-color: rgb(10 , 148 , 0)&quot; color=&quot;#ffffff&quot;&gt;skills&lt;/font&gt;&lt;br&gt;JOIN &lt;span style=&quot;background-color: rgb(110 , 110 , 22)&quot;&gt;person_skill &lt;/span&gt;&lt;br&gt;&lt;span style=&quot;white-space: pre&quot;&gt;	&lt;/span&gt;on &lt;span style=&quot;background-color: rgb(110 , 110 , 22)&quot;&gt;person_skill&lt;/span&gt;.skill_id = &lt;span style=&quot;background-color: rgb(10 , 148 , 0)&quot;&gt;skills&lt;/span&gt;.id&lt;br&gt;JOIN &lt;span style=&quot;background-color: rgb(255 , 0 , 128)&quot;&gt;persons&lt;/span&gt;&lt;br&gt;&lt;span style=&quot;white-space: pre&quot;&gt;	&lt;/span&gt;ON &lt;span style=&quot;background-color: rgb(255 , 0 , 128)&quot;&gt;persons&lt;/span&gt;.id = &lt;span style=&quot;background-color: rgb(110 , 110 , 22)&quot;&gt;person_skill&lt;/span&gt;.person_id&lt;br&gt;&lt;br&gt;Where &lt;span style=&quot;background-color: rgb(255 , 0 , 128)&quot;&gt;persons&lt;/span&gt;.id = 1&lt;br&gt;&lt;br&gt;&lt;/font&gt;&lt;div style=&quot;font-size: 19px&quot;&gt;&lt;br&gt;&lt;/div&gt;" style="text;html=1;strokeColor=none;fillColor=none;align=left;verticalAlign=middle;whiteSpace=wrap;rounded=0;" vertex="1" parent="1">
      <mxGeometry x="-29" y="593" width="420" height="252" as="geometry" />
    </mxCell>
  </root>
</mxGraphModel>